<?xml version="1.0" encoding="utf-8"?>
<!-- Generator: Adobe Illustrator 21.1.0, SVG Export Plug-In . SVG Version: 6.00 Build 0)  -->
<svg version="1.1" id="Layer_1" xmlns="http://www.w3.org/2000/svg" xmlns:xlink="http://www.w3.org/1999/xlink" x="0px" y="0px"
	 viewBox="0 0 38 35" style="enable-background:new 0 0 38 35;" xml:space="preserve">
<style type="text/css">
	.st0{fill:#D8D8D8;}
</style>
<title>4</title>
<desc>Created with Sketch.</desc>
<g id="Group-14" transform="translate(219.000000, 160.000000)">
	<g id="Group-11" transform="translate(273.000000, 0.000000)">
		<g id="Group-10">
			<g id="Group-9">
			</g>
		</g>
	</g>
</g>
<path class="st0" d="M32.6,0.9H5.4c-2.5,0-4.5,2-4.5,4.5v17.5c0,2.5,2,4.5,4.5,4.5h12.5v5.5h-5.7c-0.6,0-1.1,0.5-1.1,1.1
	s0.5,1.1,1.1,1.1h13.6c0.6,0,1.1-0.5,1.1-1.1s-0.5-1.1-1.1-1.1h-5.7v-5.5h12.5c2.5,0,4.5-2,4.5-4.5V5.4C37.1,2.9,35.1,0.9,32.6,0.9z
	 M34.9,22.9c0,1.3-1,2.3-2.3,2.3H5.4c-1.3,0-2.3-1-2.3-2.3V5.4c0-1.3,1-2.3,2.3-2.3h27.2c1.3,0,2.3,1,2.3,2.3V22.9z"/>
</svg>
