<?xml version="1.0" encoding="utf-8"?>
<!-- Generator: Adobe Illustrator 21.1.0, SVG Export Plug-In . SVG Version: 6.00 Build 0)  -->
<svg version="1.1" id="Layer_1" xmlns="http://www.w3.org/2000/svg" xmlns:xlink="http://www.w3.org/1999/xlink" x="0px" y="0px"
	 viewBox="0 0 38 35" style="enable-background:new 0 0 38 35;" xml:space="preserve">
<style type="text/css">
	.st0{fill:#C5D9FA;}
	.st1{fill:#3B7CEC;}
</style>
<title>8</title>
<desc>Created with Sketch.</desc>
<g id="ICON">
	<g id="iPhone-7" transform="translate(-498.000000, -318.000000)">
		<g id="Group" transform="translate(499.000000, 320.000000)">
			<g id="Path">
				<polygon class="st0" points="2.8,21.9 33.8,0 34.2,23.5 0.8,23.5 				"/>
			</g>
			<g id="Rectangle-path">
				<path class="st1" d="M31.6,25.3H4.4c-2.5,0-4.5-2-4.5-4.5V3.4c0-2.5,2-4.5,4.5-4.5h27.2c2.5,0,4.5,2,4.5,4.5v17.5
					C36.1,23.3,34.1,25.3,31.6,25.3z M4.4,1.1c-1.3,0-2.3,1-2.3,2.3v17.5c0,1.3,1,2.3,2.3,2.3h27.2c1.3,0,2.3-1,2.3-2.3V3.4
					c0-1.3-1-2.3-2.3-2.3H4.4z"/>
			</g>
			<g id="Shape">
				<path class="st1" d="M24.8,32.9H11.2c-0.6,0-1.1-0.5-1.1-1.1s0.5-1.1,1.1-1.1h13.6c0.6,0,1.1,0.5,1.1,1.1S25.4,32.9,24.8,32.9z"
					/>
			</g>
			<g id="Shape_1_">
				<path class="st1" d="M18,32.3c-0.6,0-1.1-0.5-1.1-1.1v-6.9c0-0.6,0.5-1.1,1.1-1.1s1.1,0.5,1.1,1.1v6.9
					C19.1,31.8,18.6,32.3,18,32.3z"/>
			</g>
		</g>
	</g>
</g>
</svg>
