<?xml version="1.0" encoding="UTF-8"?>
<svg width="49px" height="53px" viewBox="0 0 49 53" version="1.1" xmlns="http://www.w3.org/2000/svg" xmlns:xlink="http://www.w3.org/1999/xlink">
    <!-- Generator: Sketch 45.1 (43504) - http://www.bohemiancoding.com/sketch -->
    <title>50</title>
    <desc>Created with Sketch.</desc>
    <defs></defs>
    <g id="ICON" stroke="none" stroke-width="1" fill="none" fill-rule="evenodd">
        <g id="iPhone-7" transform="translate(-435.000000, -974.000000)" stroke="#FFFFFF" stroke-width="2.04444444">
            <g id="Group-9" transform="translate(437.000000, 975.000000)">
                <polyline id="Line" stroke-linecap="round" stroke-linejoin="round" points="7.15555556 27.9478458 13.2888889 27.9478458 18.7642556 27.9478458"></polyline>
                <path d="M7.15555556,33.9614512 L13.2888889,33.9614512" id="Line" stroke-linecap="round" stroke-linejoin="round"></path>
                <g id="Group-6" transform="translate(27.600000, 28.950113)">
                    <path d="M5.93298401,2.79739049 C9.80754408,2.22755169 12.1322801,2.70241736 12.9071921,4.2219875 C14.0695602,6.50134272 11.7448241,8.49577854 9.42008807,9.63545614 C7.09535203,10.7751338 3.31765596,12.4846502 3.89883997,15.0489248 C4.48002398,17.6131994 8.83890406,17.0433606 12.0354161,16.4735218" id="Path-2"></path>
                    <ellipse id="Oval-2" cx="2.97378858" cy="2.9157377" rx="2.97378858" ry="2.9157377"></ellipse>
                    <ellipse id="Oval-2" cx="14.9339438" cy="15.662132" rx="2.97378858" ry="2.9157377"></ellipse>
                </g>
                <rect id="Rectangle-path" stroke-linecap="round" stroke-linejoin="round" x="7.15555556" y="11.0249433" width="12.3154168" height="8.72481753" rx="2.04444444"></rect>
                <path d="M31.399038,50.4988662 L6.71746032,50.4988662 C3.00750943,50.4988662 3.74943627e-15,47.7514578 0,44.3623577 L0,6.67619108 C-4.54337948e-16,3.287091 3.00750943,0.53968254 6.71746032,0.53968254 L31.399038,0.53968254 C35.1089889,0.53968254 38.1164983,3.287091 38.1164983,6.67619108 L38.1164983,25.5192744" id="Rectangle-path" stroke-linecap="round" stroke-linejoin="round"></path>
            </g>
        </g>
    </g>
</svg>