<?xml version="1.0" encoding="UTF-8"?>
<svg width="40px" height="37px" viewBox="0 0 40 37" version="1.1" xmlns="http://www.w3.org/2000/svg" xmlns:xlink="http://www.w3.org/1999/xlink">
    <!-- Generator: Sketch 45.1 (43504) - http://www.bohemiancoding.com/sketch -->
    <title>Group 10</title>
    <desc>Created with Sketch.</desc>
    <defs></defs>
    <g id="Page-1" stroke="none" stroke-width="1" fill="none" fill-rule="evenodd">
        <g id="CRM" transform="translate(-77.000000, -881.000000)">
            <g id="Group-10" transform="translate(78.000000, 882.000000)">
                <g id="rotate-cw" stroke="#747474" stroke-width="2" stroke-linecap="round" stroke-linejoin="round">
                    <polyline id="Shape" points="37.6206495 1.89881535 37.6206495 13.2917074 26.3344547 13.2917074"></polyline>
                    <path d="M32.899258,22.7857842 C30.3873682,29.9628969 23.4758781,34.5977553 15.9481762,34.1532117 C8.42047432,33.7086681 2.09151012,28.2919032 0.425794253,20.8680846 C-1.23992162,13.4442661 2.15921948,5.80329667 8.76250857,2.12788615 C15.3657977,-1.54752437 23.5811637,-0.37122453 28.9114692,5.01287251 L37.6206495,13.2917074" id="Shape"></path>
                </g>
                <path d="M20.254136,21.3246209 C20.254136,20.6657634 20.0231813,20.1107559 19.5612649,19.6595818 C19.0993486,19.2084077 18.3205478,18.8002086 17.2248392,18.4349724 C15.6994409,17.9694753 14.5876356,17.3625478 13.8893899,16.6141716 C13.1911443,15.8657955 12.8420267,14.9151214 12.8420267,13.7621209 C12.8420267,12.5876358 13.1839829,11.6244293 13.8679056,10.8724724 C14.5518283,10.1205155 15.4917603,9.67292887 16.6877298,9.52969899 L16.6877298,7.17715993 L18.2883157,7.17715993 L18.2883157,9.54044118 C19.4914467,9.70515554 20.427798,10.2100333 21.0973977,11.0550896 C21.7669975,11.9001459 22.1017923,13.0567099 22.1017923,14.5248162 L20.1252298,14.5248162 C20.1252298,13.5150455 19.8853233,12.7129702 19.4055032,12.1185662 C18.9256831,11.5241622 18.2775776,11.2269646 17.4611673,11.2269646 C16.6089495,11.2269646 15.9572633,11.4471773 15.5060892,11.8876091 C15.054915,12.328041 14.8293313,12.9421299 14.8293313,13.7298943 C14.8293313,14.4603667 15.0674475,15.0422294 15.5436868,15.4754998 C16.0199262,15.9087702 16.804098,16.3026464 17.8962259,16.6571404 C18.9883537,17.0116344 19.8405587,17.4019299 20.4528665,17.8280388 C21.0651742,18.2541477 21.5163416,18.7500738 21.8063821,19.3158318 C22.0964226,19.8815898 22.2414407,20.5440181 22.2414407,21.3031365 C22.2414407,22.513429 21.8780003,23.4873776 21.1511087,24.2250115 C20.424217,24.9626454 19.4055098,25.39949 18.0949563,25.5355584 L18.0949563,27.5873162 L16.5051126,27.5873162 L16.5051126,25.5355584 C15.1730747,25.413813 14.1293026,24.9393711 13.3737649,24.1122185 C12.6182273,23.2850659 12.2404642,22.1625186 12.2404642,20.7445427 L14.2277688,20.7445427 C14.2277688,21.7399904 14.4891595,22.5062588 15.0119485,23.0433709 C15.5347376,23.5804829 16.2759411,23.8490349 17.2355813,23.8490349 C18.1737371,23.8490349 18.9113599,23.6234512 19.448472,23.1722771 C19.985584,22.721103 20.254136,22.1052237 20.254136,21.3246209 Z" id="$" fill="#747474"></path>
            </g>
        </g>
    </g>
</svg>