<?xml version="1.0" encoding="UTF-8"?>
<svg width="35px" height="37px" viewBox="0 0 35 37" version="1.1" xmlns="http://www.w3.org/2000/svg" xmlns:xlink="http://www.w3.org/1999/xlink">
    <!-- Generator: Sketch 45.1 (43504) - http://www.bohemiancoding.com/sketch -->
    <title>客户查重</title>
    <desc>Created with Sketch.</desc>
    <defs></defs>
    <g id="Page-1" stroke="none" stroke-width="1" fill="none" fill-rule="evenodd">
        <g id="CRM" transform="translate(-78.000000, -1109.000000)" fill-rule="nonzero" fill="#747474">
            <g id="客户查重" transform="translate(78.000000, 1109.000000)">
                <path d="M21.0404418,34.5887479 L2.14588212,34.5887479 C2.70887081,26.6598361 9.27242943,20.4958496 17.2210416,20.4313242 C22.3566502,20.4984362 26.7416097,16.7376711 27.4577544,11.6517968 C28.173899,6.5659226 24.9979645,1.74050402 20.0435174,0.386829929 C15.0890702,-0.966844159 9.9007017,1.57324572 7.93124178,6.3166841 C5.96178185,11.0601225 7.82522649,16.5281018 12.2814638,19.0817128 C5.11958247,21.2554901 0.172147821,27.79395 0.0269922296,35.2770497 C0.0269922296,35.9627899 0.58289451,36.5186922 1.26863473,36.5186922 L21.0404418,36.5186922 C21.5994692,36.5186922 22.0526504,36.065511 22.0526504,35.5064837 C22.0526504,34.9474563 21.5994692,34.4942751 21.0404418,34.4942751 L21.0404418,34.5887479 Z M9.06938868,10.2957426 C9.06938868,5.82352384 12.6948383,2.1980742 17.1670571,2.1980742 C21.6392759,2.1980742 25.2647255,5.82352384 25.2647255,10.2957426 C25.2647255,14.7679614 21.6392759,18.393411 17.1670571,18.393411 C12.6892012,18.3564086 9.07663747,14.7197611 9.06938868,10.2417582 L9.06938868,10.2957426 Z" id="Shape"></path>
                <path d="M34.1586647,34.9936314 L29.0436375,29.8786041 C29.7611249,28.9203363 30.1493481,27.7556667 30.1503189,26.55856 C30.1666334,23.9769856 28.4284631,21.7137351 25.9300817,21.0634403 C23.4317004,20.4131455 20.8106745,21.5417563 19.5662918,23.8036812 C18.3219091,26.0656061 18.7717258,28.8836203 20.6584363,30.6457542 C22.5451468,32.4078882 25.387278,32.6644597 27.559065,31.2687039 L32.6875883,36.4242194 C33.0864116,36.7958468 33.7079075,36.7848812 34.0933728,36.3994159 C34.4788381,36.0139507 34.4898037,35.3924547 34.1181764,34.9936314 L34.1586647,34.9936314 Z M20.9729613,26.55856 C20.9730875,24.5886285 22.5661701,22.9896936 24.5360879,22.9823439 C26.5060057,22.9749942 28.1109749,24.5619973 28.1258004,26.531873 C28.1406259,28.5017488 26.5597251,30.1127291 24.5899198,30.1350302 C23.6343853,30.1458483 22.7142599,29.7738239 22.0347592,29.1019295 C21.3552585,28.4300351 20.9729,27.5141558 20.9729613,26.55856 L20.9729613,26.55856 Z" id="Shape"></path>
            </g>
        </g>
    </g>
</svg>