<?xml version="1.0" encoding="utf-8"?>
<!-- Generator: Adobe Illustrator 21.1.0, SVG Export Plug-In . SVG Version: 6.00 Build 0)  -->
<svg version="1.1" id="Layer_1" xmlns="http://www.w3.org/2000/svg" xmlns:xlink="http://www.w3.org/1999/xlink" x="0px" y="0px"
	 viewBox="0 0 30 34" style="enable-background:new 0 0 30 34;" xml:space="preserve">
<style type="text/css">
	.st0{fill:#D8D8D8;}
</style>
<title>54</title>
<desc>Created with Sketch.</desc>
<g id="ICON">
	<g id="iPhone-7" transform="translate(-651.000000, -156.000000)">
		<g id="Group" transform="translate(652.857422, 157.469933)">
			<g id="Shape">
				<path class="st0" d="M27,31.6c-0.6,0-1-0.4-1-1v-3.4c0-3.2-2.6-5.8-5.8-5.8H6.8C3.6,21.4,1,24,1,27.2v3.4c0,0.6-0.4,1-1,1
					s-1-0.4-1-1v-3.4c0-4.3,3.5-7.8,7.8-7.8h13.5c4.3,0,7.8,3.5,7.8,7.8v3.4C28,31.2,27.6,31.6,27,31.6z"/>
			</g>
			<g id="Oval">
				<path class="st0" d="M13.5,14.6c-4.3,0-7.8-3.5-7.8-7.8S9.2-1,13.5-1s7.8,3.5,7.8,7.8S17.8,14.6,13.5,14.6z M13.5,1
					c-3.2,0-5.8,2.6-5.8,5.8s2.6,5.8,5.8,5.8c3.2,0,5.8-2.6,5.8-5.8S16.7,1,13.5,1z"/>
			</g>
		</g>
	</g>
</g>
</svg>
