<?xml version="1.0" encoding="utf-8"?>
<!-- Generator: Adobe Illustrator 21.1.0, SVG Export Plug-In . SVG Version: 6.00 Build 0)  -->
<svg version="1.1" id="Layer_1" xmlns="http://www.w3.org/2000/svg" xmlns:xlink="http://www.w3.org/1999/xlink" x="0px" y="0px"
	 viewBox="0 0 30 34" style="enable-background:new 0 0 30 34;" xml:space="preserve">
<style type="text/css">
	.st0{fill:#C5D9FA;}
	.st1{fill:#3B7CEC;}
</style>
<title>9</title>
<desc>Created with Sketch.</desc>
<g id="ICON">
	<g id="iPhone-7" transform="translate(-651.000000, -316.000000)">
		<g id="Group" transform="translate(652.000000, 317.000000)">
			<g id="Shape">
				<path class="st0" d="M27.9,32v-3.4c0-3.8-3-6.8-6.8-6.8H7.6c-3.7,0-6.8,3-6.8,6.8V32"/>
			</g>
			<g id="Shape_1_">
				<path class="st1" d="M27.9,32.1c-0.6,0-1-0.4-1-1v-3.4c0-3.2-2.6-5.8-5.8-5.8H7.6c-3.2,0-5.8,2.6-5.8,5.8v3.4c0,0.6-0.4,1-1,1
					s-1-0.4-1-1v-3.4c0-4.3,3.5-7.8,7.8-7.8h13.5c4.3,0,7.8,3.5,7.8,7.8v3.4C28.9,31.6,28.4,32.1,27.9,32.1z"/>
			</g>
			<g id="Oval">
				<path class="st1" d="M14.4,15.1c-4.3,0-7.8-3.5-7.8-7.8s3.5-7.8,7.8-7.8s7.8,3.5,7.8,7.8S18.6,15.1,14.4,15.1z M14.4,1.5
					c-3.2,0-5.8,2.6-5.8,5.8s2.6,5.8,5.8,5.8c3.2,0,5.8-2.6,5.8-5.8S17.5,1.5,14.4,1.5z"/>
			</g>
		</g>
	</g>
</g>
</svg>
