<?xml version="1.0" encoding="UTF-8"?>
<svg width="32px" height="30px" viewBox="0 0 32 30" version="1.1" xmlns="http://www.w3.org/2000/svg" xmlns:xlink="http://www.w3.org/1999/xlink">
    <!-- Generator: Sketch 45.1 (43504) - http://www.bohemiancoding.com/sketch -->
    <title>12</title>
    <desc>Created with Sketch.</desc>
    <defs></defs>
    <g id="ICON" stroke="none" stroke-width="1" fill="none" fill-rule="evenodd">
        <g id="iPhone-7" transform="translate(-359.000000, -527.000000)" fill-rule="nonzero" fill="#9B9B9B">
            <path d="M388.220976,527 L369.127978,527 C367.83301,527 366.269377,528.196588 366.269377,529.682608 L366.269377,531.649723 C366.269377,531.751298 366.308301,531.850166 366.380736,531.921372 C367.304604,532.828674 368.413291,532.189069 368.413291,531.288719 L368.413291,529.769401 C368.413291,529.584253 368.885652,529.217614 369.127905,529.217614 L387.453756,529.217614 C387.876437,529.217614 388.146639,529.558712 388.149419,529.981481 C388.166467,532.564929 388.156882,540.930361 388.15081,542.211546 C388.150371,542.303169 388.076034,542.376644 387.984503,542.376644 L384.999763,542.376644 C384.89777,542.376644 384.798556,542.415869 384.727366,542.488904 C383.823178,543.416477 384.464407,544.521003 385.362375,544.521003 L388.220976,544.521003 C389.563794,544.521003 390.36489,543.653219 390.36489,542.200057 L390.36489,529.682608 C390.36489,528.077888 389.502993,527 388.220976,527 Z M375.357343,543.659805 L364.989701,543.659805 C364.887707,543.659805 364.788494,543.69903 364.717303,543.772065 C363.813116,544.699639 364.454344,545.804165 365.352312,545.804165 L375.719955,545.804165 C375.821948,545.804165 375.921162,545.76494 375.992352,545.691905 C376.89654,544.764331 376.255312,543.659805 375.357343,543.659805 Z M377.501258,538.656251 L364.989701,538.656251 C364.887707,538.656251 364.788494,538.695476 364.717303,538.768511 C363.813116,539.696084 364.454344,540.80061 365.352312,540.80061 L377.863869,540.80061 C377.965863,540.80061 378.065076,540.761385 378.136267,540.68835 C379.040454,539.760777 378.399226,538.656251 377.501258,538.656251 Z M381.586636,549.029266 L373.213356,549.029266 L372.53013,549.275156 L366.78154,554.029235 L366.78154,549.40454 C366.78154,549.223051 366.635427,549.075444 366.453975,549.073541 L362.136294,549.029266 C361.93977,549.029266 361.778951,548.869146 361.778951,548.671849 L361.778951,535.797056 L381.586563,535.797056 L381.586563,549.029266 L381.586636,549.029266 Z M381.947345,533.652696 L361.418315,533.652696 C360.433499,533.652696 359.63511,534.451251 359.63511,535.436272 L359.63511,549.39005 C359.63511,550.375144 360.433499,551.173626 361.418315,551.173626 L364.637625,551.173626 L364.637625,554.365869 C364.637625,554.917656 364.856319,555.428023 365.252953,555.804761 C365.626685,556.158592 366.114118,556.353694 366.626501,556.353694 C367.051011,556.353694 367.457668,556.218601 367.848522,555.926973 L373.599307,551.173626 L381.947345,551.173626 C382.932234,551.173626 383.73055,550.375071 383.73055,549.39005 L383.73055,535.436272 C383.730623,534.451251 382.932234,533.652696 381.947345,533.652696 Z" id="Shape"></path>
        </g>
    </g>
</svg>