<?xml version="1.0" encoding="UTF-8"?>
<svg width="51px" height="51px" viewBox="0 0 51 51" version="1.1" xmlns="http://www.w3.org/2000/svg" xmlns:xlink="http://www.w3.org/1999/xlink">
    <!-- Generator: Sketch 45.1 (43504) - http://www.bohemiancoding.com/sketch -->
    <title>41</title>
    <desc>Created with Sketch.</desc>
    <defs></defs>
    <g id="ICON" stroke="none" stroke-width="1" fill="none" fill-rule="evenodd">
        <g id="iPhone-7" transform="translate(-399.000000, -1194.000000)" fill-rule="nonzero" fill="#3B7CEC">
            <g id="找客户" transform="translate(399.000000, 1194.000000)">
                <path d="M38.3514117,20.8059556 L38.3514117,10.0609974 L27.6064534,10.0609974 L27.6064534,20.8059556 L38.3514117,20.8059556 Z M29.9263876,12.3809315 L36.0314775,12.3809315 L36.0314775,18.4860215 L29.9263876,18.4860215 L29.9263876,12.3809315 Z M32.2463218,47.6683512 L3.063992,47.6683512 L3.063992,20.8059556 L18.4488186,20.8059556 C20.1582438,20.8059556 21.5013635,19.4628358 21.5013635,17.7534107 L21.5013635,3.22329671 L44.5786034,3.22329671 L44.5786034,27.88786 C44.5786034,28.7425725 45.3112142,29.4751833 46.1659268,29.4751833 C47.0206394,29.4751833 47.7532501,28.7425725 47.7532501,27.88786 L47.7532501,2.36858413 C47.7532501,1.14756616 46.7764358,0.0486499495 45.433316,0.0486499495 L20.7687527,0.0486499495 C19.5477348,0.0486499495 18.4488185,1.02546435 18.4488186,2.36858413 L18.4488186,17.7534107 L2.33138123,17.7534107 C1.11036326,17.7534107 0.0114470531,18.7302251 0.0114470531,20.0733448 L0.0114470531,48.5230638 C0.0114470531,49.7440818 0.988261449,50.842998 2.33138123,50.842998 L32.2463218,50.842998 C33.1010344,50.842998 33.8336451,50.1103872 33.8336451,49.2556746 C33.7115433,48.4009621 33.1010344,47.6683513 32.2463218,47.6683512 L32.2463218,47.6683512 Z M9.16908189,37.7781056 L19.9140401,37.7781056 L19.9140401,27.0331473 L9.16908189,27.0331473 L9.16908189,37.7781056 Z M11.4890161,29.2309797 L17.594106,29.2309797 L17.594106,35.3360696 L11.4890161,35.3360696 L11.4890161,29.2309797 Z M50.3173879,48.8893693 L44.4565016,43.0284829 C45.433316,41.6853632 46.043825,39.975938 46.043825,38.144411 C46.043825,33.7487463 42.380771,30.0856923 37.9851063,30.0856923 C33.5894416,30.0856923 29.9263876,33.7487463 29.9263876,38.144411 C29.9263876,42.5400757 33.5894416,46.2031297 37.9851063,46.2031297 C39.8166333,46.2031297 41.5260584,45.5926207 42.8691782,44.6158063 L48.7300645,50.4766926 C49.2184717,50.9650998 49.8289808,50.9650998 50.3173879,50.4766926 C50.805795,49.9882854 50.8057951,49.2556746 50.3173879,48.8893693 Z M37.9851063,43.8831955 C34.8104595,43.8831955 32.2463218,41.3190578 32.2463218,38.144411 C32.2463218,34.9697642 34.8104595,32.4056265 37.9851063,32.4056264 C41.1597531,32.4056264 43.7238908,34.9697642 43.7238908,38.144411 C43.7238908,41.3190578 41.1597531,43.8831955 37.9851063,43.8831955 Z" id="Shape"></path>
            </g>
        </g>
    </g>
</svg>