<?xml version="1.0" encoding="UTF-8"?>
<svg width="30px" height="28px" viewBox="0 0 30 28" version="1.1" xmlns="http://www.w3.org/2000/svg" xmlns:xlink="http://www.w3.org/1999/xlink">
    <!-- Generator: Sketch 45.1 (43504) - http://www.bohemiancoding.com/sketch -->
    <title>Shape</title>
    <desc>Created with Sketch.</desc>
    <defs></defs>
    <g id="Page-1" stroke="none" stroke-width="1" fill="none" fill-rule="evenodd">
        <g id="线索列表" transform="translate(-69.000000, -183.000000)" fill="#BEBEBE">
            <g id="Group-4" transform="translate(45.000000, 168.000000)">
                <g id="Group-3">
                    <g id="Search-Bar" transform="translate(24.819329, 13.000000)">
                        <path d="M28.5704104,27.8274545 L21.100822,20.6044091 C22.7220132,18.6447273 23.6910427,16.1590909 23.6910427,13.4545455 C23.6910427,7.12845455 18.3878686,2 11.8455213,2 C5.30350314,2 0,7.12845455 0,13.4545455 C0,19.7806364 5.30350314,24.9090909 11.8455213,24.9090909 C14.6423806,24.9090909 17.2128587,23.9717273 19.23943,22.4040455 L26.7090183,29.6270909 C26.9660003,29.8755909 27.3029396,30 27.6395498,30 C27.9764891,30 28.3134284,29.8755909 28.5704104,29.6270909 C29.0843744,29.1304091 29.0843744,28.3241364 28.5704104,27.8274545 L28.5704104,27.8274545 Z M11.8455213,22.3636364 C6.75721185,22.3636364 2.63233808,18.3749091 2.63233808,13.4545455 C2.63233808,8.53418182 6.75721185,4.54545455 11.8455213,4.54545455 C16.9341599,4.54545455 21.0587046,8.53418182 21.0587046,13.4545455 C21.0587046,18.3749091 16.9341599,22.3636364 11.8455213,22.3636364 L11.8455213,22.3636364 Z" id="Shape"></path>
                    </g>
                </g>
            </g>
        </g>
    </g>
</svg>