<?xml version="1.0" encoding="utf-8"?>
<!-- Generator: Adobe Illustrator 21.1.0, SVG Export Plug-In . SVG Version: 6.00 Build 0)  -->
<svg version="1.1" id="Layer_1" xmlns="http://www.w3.org/2000/svg" xmlns:xlink="http://www.w3.org/1999/xlink" x="0px" y="0px"
	 viewBox="0 0 43 45" style="enable-background:new 0 0 43 45;" xml:space="preserve">
<style type="text/css">
	.st0{fill:#3B7CEC;}
</style>
<title>审批</title>
<desc>Created with Sketch.</desc>
<g id="审批" transform="translate(518.000000, 1196.000000)">
	<path id="Fill-1" class="st0" d="M-480-1163.2c0.3,0.3,0.9,0.3,1.2,0l2.8-2.8c0.2-0.2,0.3-0.4,0.3-0.6s-0.1-0.5-0.3-0.6v0l-5.6-5.6
		c-0.2-0.2-0.4-0.3-0.6-0.3c-0.2,0-0.5,0.1-0.6,0.3l-14,14c-0.2,0.2-0.3,0.4-0.3,0.6v5.5c0,0.5,0.4,0.9,0.9,0.9h5.6
		c0.2,0,0.5-0.1,0.6-0.3l8.4-8.4c0.2-0.2,0.3-0.4,0.3-0.6c0-0.2-0.1-0.5-0.3-0.6c-0.3-0.3-0.9-0.3-1.2,0l-8.1,8.1l-4.4,0l0-4.3
		l13.1-13.2l4.4,4.4l-1.6,1.6l-2.2-2.2c-0.3-0.3-0.9-0.3-1.2,0c-0.2,0.2-0.3,0.4-0.3,0.6c0,0.2,0.1,0.5,0.3,0.6L-480-1163.2z"/>
	<g id="Group-5" transform="translate(0.000000, 0.145000)">
		<path id="Fill-3" class="st0" d="M-498.9-1176.3c-4.9,0-8.9-4-8.9-8.8c0-4.9,4-8.8,8.9-8.8c4.9,0,8.9,4,8.9,8.8
			C-490-1180.3-494-1176.3-498.9-1176.3 M-498.9-1196.1c-6.1,0-11.1,4.9-11.1,11c0,3.4,1.5,6.5,4.2,8.6l1.2,1l-1.5,0.6
			c-7.3,2.9-12,9.8-12,17.6v4c0,0.6,0.5,1.1,1.1,1.1h13.4v-2.2h-12.4v-2.9c0-9.2,7.6-16.8,16.9-16.8c1.6,0,3.2,0.2,4.8,0.7l1.8-1.7
			l-1-0.4l1.2-1c2.7-2.1,4.2-5.3,4.2-8.6C-487.9-1191.2-492.8-1196.1-498.9-1196.1"/>
	</g>
</g>
</svg>
