<?xml version="1.0" encoding="UTF-8"?>
<svg width="56px" height="52px" viewBox="0 0 56 52" version="1.1" xmlns="http://www.w3.org/2000/svg" xmlns:xlink="http://www.w3.org/1999/xlink">
    <!-- Generator: Sketch 45.1 (43504) - http://www.bohemiancoding.com/sketch -->
    <title>21</title>
    <desc>Created with Sketch.</desc>
    <defs></defs>
    <g id="ICON" stroke="none" stroke-width="1" fill="none" fill-rule="evenodd">
        <g id="iPhone-7" transform="translate(-197.000000, -846.000000)" fill-rule="nonzero" fill="#FFFFFF">
            <g id="扫码" transform="translate(199.000000, 847.000000)">
                <path d="M51.2605164,26.6165641 L-0.0273882811,26.6165641 C-1.11626995,26.6165641 -2,25.732834 -2,24.6439523 C-2,23.5550707 -1.11626995,22.6713406 -0.0273882811,22.6713406 L51.2605164,22.6713406 C52.3513707,22.6713406 53.2331281,23.5550707 53.2331281,24.6439523 C53.2331281,25.732834 52.3513707,26.6165641 51.2605164,26.6165641 Z M45.3426813,50.2879047 L33.5070109,50.2879047 C32.4161567,50.2879047 31.5343992,49.4061473 31.5343992,48.315293 C31.5343992,47.2244387 32.4161567,46.3426813 33.5070109,46.3426813 L45.3426813,46.3426813 C46.4315629,46.3426813 47.315293,45.4589512 47.315293,44.3700695 L47.315293,34.5070109 C47.315293,33.4161567 48.1970504,32.5343992 49.2879047,32.5343992 C50.378759,32.5343992 51.2605164,33.4161567 51.2605164,34.5070109 L51.2605164,44.3700695 C51.2605164,47.6327693 48.605381,50.2879047 45.3426813,50.2879047 Z M15.7535055,50.2879047 L5.89044688,50.2879047 C2.62774709,50.2879047 -0.0273882811,47.6327693 -0.0273882811,44.3700695 L-0.0273882811,34.5070109 C-0.0273882811,33.4161567 0.856341769,32.5343992 1.94522344,32.5343992 C3.03410511,32.5343992 3.91783516,33.4161567 3.91783516,34.5070109 L3.91783516,44.3700695 C3.91783516,45.4589512 4.80353782,46.3426813 5.89044688,46.3426813 L15.7535055,46.3426813 C16.8423871,46.3426813 17.7261172,47.2244387 17.7261172,48.315293 C17.7261172,49.4061473 16.8423871,50.2879047 15.7535055,50.2879047 Z M1.94522344,16.7535055 C0.856341769,16.7535055 -0.0273882811,15.8697754 -0.0273882811,14.7808938 L-0.0273882811,4.91783516 C-0.0273882811,1.65513537 2.62774709,-1 5.89044688,-1 L15.7535055,-1 C16.8423871,-1 17.7261172,-0.11626995 17.7261172,0.972611719 C17.7261172,2.06149339 16.8423871,2.94522344 15.7535055,2.94522344 L5.89044688,2.94522344 C4.80353782,2.94522344 3.91783516,3.8309261 3.91783516,4.91783516 L3.91783516,14.7808938 C3.91783516,15.8697754 3.03410511,16.7535055 1.94522344,16.7535055 Z M49.2879047,16.7535055 C48.1970504,16.7535055 47.315293,15.8697754 47.315293,14.7808938 L47.315293,4.91783516 C47.315293,3.8309261 46.4315629,2.94522344 45.3426813,2.94522344 L33.5070109,2.94522344 C32.4161567,2.94522344 31.5343992,2.06149339 31.5343992,0.972611719 C31.5343992,-0.11626995 32.4161567,-1 33.5070109,-1 L45.3426813,-1 C48.605381,-1 51.2605164,1.65513537 51.2605164,4.91783516 L51.2605164,14.7808938 C51.2605164,15.8697754 50.378759,16.7535055 49.2879047,16.7535055 Z" id="Shape"></path>
            </g>
        </g>
    </g>
</svg>