<?xml version="1.0" encoding="utf-8"?>
<!-- Generator: Adobe Illustrator 21.1.0, SVG Export Plug-In . SVG Version: 6.00 Build 0)  -->
<svg version="1.1" id="Layer_1" xmlns="http://www.w3.org/2000/svg" xmlns:xlink="http://www.w3.org/1999/xlink" x="0px" y="0px"
	 viewBox="0 0 32 35" style="enable-background:new 0 0 32 35;" xml:space="preserve">
<style type="text/css">
	.st0{fill:#D8D8D8;}
</style>
<title>3</title>
<desc>Created with Sketch.</desc>
<g id="ICON">
	<g id="iPhone-7" transform="translate(-62.000000, -157.000000)">
		<g id="Group" transform="translate(63.000000, 158.000000)">
			<g id="Shape">
				<path class="st0" d="M26.7,34H3.3C0.9,34-1,32.1-1,29.7V11.5c0-0.3,0.1-0.6,0.4-0.8l15-11.5c0.4-0.3,0.9-0.3,1.2,0l15,11.5
					c0.2,0.2,0.4,0.5,0.4,0.8v18.2C31,32.1,29.1,34,26.7,34z M1,12v17.7C1,31,2,32,3.3,32h23.3c1.3,0,2.3-1,2.3-2.3V12L15,1.3L1,12z
					"/>
			</g>
		</g>
	</g>
</g>
</svg>
