<?xml version="1.0" encoding="utf-8"?>
<!-- Generator: Adobe Illustrator 21.1.0, SVG Export Plug-In . SVG Version: 6.00 Build 0)  -->
<svg version="1.1" id="Layer_1" xmlns="http://www.w3.org/2000/svg" xmlns:xlink="http://www.w3.org/1999/xlink" x="0px" y="0px"
	 viewBox="0 0 35 32" style="enable-background:new 0 0 35 32;" xml:space="preserve">
<style type="text/css">
	.st0{fill:#C5D9FA;}
	.st1{fill:#3B7CEC;}
</style>
<title>6</title>
<desc>Created with Sketch.</desc>
<g id="ICON">
	<g id="iPhone-7" transform="translate(-207.000000, -320.000000)">
		<g id="Group" transform="translate(208.000000, 321.000000)">
			<g id="Rectangle-13">
				<rect y="17" class="st0" width="29" height="12"/>
			</g>
			<g>
				<path class="st1" d="M33.9,0.6c-0.1-0.2-0.3-0.4-0.5-0.5C33.3,0,33.1,0,33,0h-6c-0.6,0-1,0.4-1,1s0.4,1,1,1h3.6l-7.1,7.1
					l-4.3-4.3c-0.4-0.4-1-0.4-1.4,0l-7.5,7.5c-0.4,0.4-0.4,1,0,1.4c0.2,0.2,0.5,0.3,0.7,0.3s0.5-0.1,0.7-0.3l6.8-6.8l4.3,4.3
					c0.4,0.4,1,0.4,1.4,0L32,3.4V7c0,0.6,0.4,1,1,1s1-0.4,1-1V1C34,0.9,34,0.7,33.9,0.6z"/>
				<path class="st1" d="M29.2,13.4c-0.6,0-1,0.4-1,1v11.7c0,1.6-1.3,2.9-2.9,2.9H3.9C2.3,29,1,27.7,1,26.1V4.7
					c0-1.6,1.3-2.9,2.9-2.9h11.7c0.6,0,1-0.4,1-1s-0.4-1-1-1H3.9C1.2-0.2-1,2-1,4.7v21.4c0,2.7,2.2,4.9,4.9,4.9h21.4
					c2.7,0,4.9-2.2,4.9-4.9V14.4C30.2,13.9,29.7,13.4,29.2,13.4z"/>
			</g>
		</g>
	</g>
</g>
</svg>
