<?xml version="1.0" encoding="utf-8"?>
<!-- Generator: Adobe Illustrator 21.1.0, SVG Export Plug-In . SVG Version: 6.00 Build 0)  -->
<svg version="1.1" id="Layer_1" xmlns="http://www.w3.org/2000/svg" xmlns:xlink="http://www.w3.org/1999/xlink" x="0px" y="0px"
	 viewBox="0 0 35 32" style="enable-background:new 0 0 35 32;" xml:space="preserve">
<style type="text/css">
	.st0{fill:#D8D8D8;}
</style>
<title>5</title>
<desc>Created with Sketch.</desc>
<g id="Group-14" transform="translate(219.000000, 160.000000)">
	<g id="Group-13" transform="translate(0.000000, 2.000000)">
		<g id="Group-4">
			<g id="trending-up">
			</g>
		</g>
	</g>
</g>
<g>
	<path class="st0" d="M34.9,1.6c-0.1-0.2-0.3-0.4-0.5-0.5C34.3,1,34.1,1,34,1h-6c-0.6,0-1,0.4-1,1s0.4,1,1,1h3.6l-7.1,7.1l-4.3-4.3
		c-0.4-0.4-1-0.4-1.4,0l-7.5,7.5c-0.4,0.4-0.4,1,0,1.4c0.2,0.2,0.5,0.3,0.7,0.3s0.5-0.1,0.7-0.3l6.8-6.8l4.3,4.3
		c0.4,0.4,1,0.4,1.4,0L33,4.4V8c0,0.6,0.4,1,1,1s1-0.4,1-1V2C35,1.9,35,1.7,34.9,1.6z"/>
	<path class="st0" d="M30.2,14.4c-0.6,0-1,0.4-1,1v11.7c0,1.6-1.3,2.9-2.9,2.9H4.9C3.3,30,2,28.7,2,27.1V5.7c0-1.6,1.3-2.9,2.9-2.9
		h11.7c0.6,0,1-0.4,1-1s-0.4-1-1-1H4.9C2.2,0.8,0,3,0,5.7v21.4C0,29.8,2.2,32,4.9,32h21.4c2.7,0,4.9-2.2,4.9-4.9V15.4
		C31.2,14.9,30.7,14.4,30.2,14.4z"/>
</g>
</svg>
