<?xml version="1.0" encoding="UTF-8"?>
<svg width="48px" height="40px" viewBox="0 0 48 40" version="1.1" xmlns="http://www.w3.org/2000/svg" xmlns:xlink="http://www.w3.org/1999/xlink">
    <!-- Generator: Sketch 45.1 (43504) - http://www.bohemiancoding.com/sketch -->
    <title>17</title>
    <desc>Created with Sketch.</desc>
    <defs>
        <rect id="path-1" x="-1" y="624" width="750" height="86"></rect>
        <filter x="-0.1%" y="-1.7%" width="100.1%" height="102.3%" filterUnits="objectBoundingBox" id="filter-2">
            <feOffset dx="0" dy="-1" in="SourceAlpha" result="shadowOffsetOuter1"></feOffset>
            <feColorMatrix values="0 0 0 0 0.909803922   0 0 0 0 0.909803922   0 0 0 0 0.91372549  0 0 0 1 0" type="matrix" in="shadowOffsetOuter1"></feColorMatrix>
        </filter>
    </defs>
    <g id="ICON" stroke="none" stroke-width="1" fill="none" fill-rule="evenodd">
        <g id="iPhone-7" transform="translate(-573.000000, -647.000000)">
            <g id="bg">
                <use fill="black" fill-opacity="1" filter="url(#filter-2)" xlink:href="#path-1"></use>
                <use fill="#F8F8F8" fill-rule="evenodd" xlink:href="#path-1"></use>
            </g>
            <g id="camera" transform="translate(574.000000, 648.000000)" stroke="#8E8E92" stroke-width="2" stroke-linecap="round" stroke-linejoin="round">
                <path d="M46,33.7777778 C46,36.1096467 44.1277362,38 41.8181818,38 L4.18181818,38 C1.87226377,38 4.64275083e-16,36.1096467 0,33.7777778 L0,10.5555556 C-2.32137542e-16,8.22368661 1.87226377,6.33333333 4.18181818,6.33333333 L12.5454545,6.33333333 L16.7272727,0 L29.2727273,0 L33.4545455,6.33333333 L41.8181818,6.33333333 C44.1277362,6.33333333 46,8.22368661 46,10.5555556 L46,33.7777778 Z" id="Shape"></path>
                <ellipse id="Oval" cx="23" cy="21.1111111" rx="8.36363636" ry="8.44444444"></ellipse>
            </g>
        </g>
    </g>
</svg>