<?xml version="1.0" encoding="UTF-8"?>
<svg width="38px" height="36px" viewBox="0 0 38 36" version="1.1" xmlns="http://www.w3.org/2000/svg" xmlns:xlink="http://www.w3.org/1999/xlink">
    <!-- Generator: Sketch 45.1 (43504) - http://www.bohemiancoding.com/sketch -->
    <title>27</title>
    <desc>Created with Sketch.</desc>
    <defs></defs>
    <g id="ICON" stroke="none" stroke-width="1" fill="none" fill-rule="evenodd">
        <g id="iPhone-7" transform="translate(-23.000000, -773.000000)">
            <g id="Group-3" transform="translate(24.000000, 773.121809)">
                <g id="笔-(1)" transform="translate(15.210526, 0.000000)" fill-rule="nonzero" fill="#FFFFFF">
                    <path d="M5.33621861,21.3128251 L0.889369768,21.3128251 C0.398437656,21.3128251 0,20.9149857 0,20.4247907 L0,15.9846188 C0,15.7484017 0.0942731954,15.5228409 0.259695972,15.3558905 L12.7108727,2.92340917 C13.0577269,2.57707576 13.6215874,2.57707576 13.9684416,2.92340917 L16.6365509,5.5875123 C16.9834051,5.93384571 16.9834051,6.49685951 16.6365509,6.84319291 C16.2896967,7.18952632 15.7258362,7.18952632 15.378982,6.84319291 L13.3405465,4.80781812 L1.77873954,16.352265 L1.77873954,19.5367563 L4.96801952,19.5367563 L18.9382398,5.5875123 C19.285094,5.2411789 19.8489545,5.2411789 20.1958087,5.5875123 C20.5426629,5.93384571 20.5426629,6.49685951 20.1958087,6.84319291 L5.9658924,21.051743 C5.79869088,21.2186934 5.57279096,21.3128251 5.33621861,21.3128251 Z" id="Shape"></path>
                    <path d="M19.5394538,7.10427502 C19.3117751,7.10427502 19.0840965,7.01724765 18.90978,6.84496898 C18.5629258,6.49863557 18.5629258,5.93562178 18.90978,5.58928837 C19.7813624,4.71901468 19.7813624,3.29993575 18.90978,2.42966206 C18.0381976,1.56116444 16.6187635,1.55938837 15.7471811,2.42966206 C15.4003269,2.77599546 14.8364665,2.77599546 14.4896123,2.42966206 C14.142758,2.08332865 14.142758,1.52031485 14.4896123,1.17398145 C16.0531243,-0.388959057 18.6020581,-0.387182989 20.1673488,1.17398145 C21.7326396,2.73869802 21.7326396,5.28202848 20.1673488,6.84496898 C19.9948111,7.01724765 19.7671325,7.10427502 19.5394538,7.10427502 Z" id="Shape"></path>
                </g>
                <path d="M32.4,18 L32.4,30.4444444 C32.4,32.4081236 30.7882251,34 28.8,34 L3.6,34 C1.6117749,34 0,32.4081236 0,30.4444444 L0,5.55555556 C0,3.59187645 1.6117749,2 3.6,2 L23.4,2" id="Shape" stroke="#FFFFFF" stroke-width="2" stroke-linecap="round" stroke-linejoin="round"></path>
            </g>
        </g>
    </g>
</svg>