<?xml version="1.0" encoding="UTF-8"?>
<svg width="38px" height="38px" viewBox="0 0 38 38" version="1.1" xmlns="http://www.w3.org/2000/svg" xmlns:xlink="http://www.w3.org/1999/xlink">
    <!-- Generator: Sketch 45.1 (43504) - http://www.bohemiancoding.com/sketch -->
    <title>诊断@2x</title>
    <desc>Created with Sketch.</desc>
    <defs></defs>
    <g id="Page-1" stroke="none" stroke-width="1" fill="none" fill-rule="evenodd">
        <g id="商机详情-赢单" transform="translate(-544.000000, -558.000000)" fill-rule="nonzero" fill="#3B7CEC">
            <g id="Group-17" transform="translate(544.000000, 558.000000)">
                <g id="诊断@2x">
                    <path d="M29.2459728,31.3299367 C26.0403845,34.0590654 21.9664608,35.5553065 17.7564835,35.5497128 C11.7297374,35.551058 6.11522986,32.4900301 2.85148233,27.4235103 C2.61038789,27.054532 2.53353316,26.6019337 2.63931474,26.1740532 C2.74509633,25.7461726 3.02399268,25.3815239 3.40924483,25.1673924 C4.11114817,24.7851058 5.01150636,24.9752046 5.44183996,25.647862 C8.11992877,29.8606396 12.7645252,32.4133949 17.7564835,32.4162157 C22.1491894,32.4101824 26.3073106,30.4330986 29.0847506,27.0299048 C31.8621907,23.626711 32.965725,19.1566949 32.0911882,14.85192 C30.9380612,8.97765747 26.0874077,4.3191918 20.1797212,3.3666087 C14.1229922,2.35550799 8.07976054,5.23609838 5.05119731,10.57783 C4.62327977,11.2978825 3.69973413,11.5461375 2.96846624,11.1376815 C2.22060492,10.7303268 1.90307723,9.77983273 2.32296584,9.0424164 C6.01918043,2.50314246 13.4325355,-1.00021168 20.8314886,0.295781533 C28.4584206,1.57633734 34.468468,7.93524744 35.3834491,15.6144043 C35.9945905,20.5419457 34.5116511,25.4999796 31.2952799,29.2827186 C31.8631271,29.2714199 32.4109582,29.4925143 32.8118925,29.894795 L36.9898886,34.0727911 C37.5329375,34.5972852 37.7507282,35.3739819 37.5595526,36.1043571 C37.3683771,36.8347324 36.7979866,37.4051228 36.0676114,37.5962984 C35.3372361,37.787474 34.5605394,37.5696833 34.0360454,37.0266344 L29.8580492,32.8486383 C29.4557685,32.447704 29.2346741,31.8998729 29.2459728,31.3320257 L29.2459728,31.3299367 Z M0,18.8377283 C0,17.9666161 0.701903337,17.2709798 1.56674853,17.2709798 L7.38669714,17.2709798 L11.1343596,9.78192173 C11.3926422,9.26504715 11.9144491,8.93228752 12.4920371,8.91612204 C13.0696251,8.89995656 13.609227,9.20300958 13.8960151,9.70462878 L20.8001537,21.7853046 L23.668348,16.0489159 C23.9332272,15.5183454 24.4749629,15.1827927 25.0679767,15.1819817 L27.1569747,15.1819817 C28.0222661,15.1819817 28.7237233,15.8834389 28.7237233,16.7487302 C28.7237233,17.6140216 28.0222661,18.3154788 27.1569747,18.3154788 L26.0372718,18.3154788 L22.2916983,25.8045368 C22.0334157,26.3214114 21.5116088,26.654171 20.9340208,26.6703365 C20.3564329,26.686502 19.8168309,26.3834489 19.5300429,25.8818297 L12.6259043,13.801154 L9.75770994,19.5375426 C9.4924942,20.0687859 8.94975882,20.4044568 8.35599222,20.4044769 L1.57092653,20.4044769 C0.705903368,20.4021945 0.00458596637,19.7027423 0,18.8377283 Z" id="Shape"></path>
                </g>
            </g>
        </g>
    </g>
</svg>